<svg width="22" height="22" viewBox="0 0 22 22" fill="none" xmlns="http://www.w3.org/2000/svg">
<g opacity="0.6">
<path fill-rule="evenodd" clip-rule="evenodd" d="M11.0845 5.07175L16.5712 8.92363V16.9767H12.1496V14.014H10.162V16.9767H5.72046V8.92715L11.0845 5.07175ZM11.0913 6.29835L6.72046 9.4399V15.9767H9.162V13.014H13.1496V15.9767H15.5712V9.44342L11.0913 6.29835Z" fill="#939393"/>
</g>
<path fill-rule="evenodd" clip-rule="evenodd" d="M11 21C16.5228 21 21 16.5228 21 11C21 5.47715 16.5228 1 11 1C5.47715 1 1 5.47715 1 11C1 16.5228 5.47715 21 11 21ZM11 22C17.0751 22 22 17.0751 22 11C22 4.92487 17.0751 0 11 0C4.92487 0 0 4.92487 0 11C0 17.0751 4.92487 22 11 22Z" fill="#D9D9D9"/>
</svg>
