<svg width="29" height="29" viewBox="0 0 29 29" fill="none" xmlns="http://www.w3.org/2000/svg">
<g clip-path="url(#clip0_93_700)">
<path fill-rule="evenodd" clip-rule="evenodd" d="M13.3883 2.38567V0.428528H15.6724V2.38567C21.0655 2.89255 25.2847 6.94763 25.2847 11.8757V15.6492C25.2847 17.9865 26.0937 20.2815 27.5847 22.2105L28.8219 23.8015H0.238861L1.47609 22.2105C2.98296 20.2815 3.77605 17.9865 3.77605 15.6492V11.8757C3.77605 6.94763 7.97944 2.89255 13.3883 2.38567ZM14.5304 4.35688C9.85114 4.35688 6.06016 7.72204 6.06016 11.8757V15.6492C6.06016 17.7893 5.48913 19.8873 4.41053 21.774H24.6185C23.5399 19.8873 22.9689 17.7893 22.9689 15.6492V11.8757C22.9848 7.72204 19.1938 4.35688 14.5304 4.35688Z" fill="#939393"/>
<path fill-rule="evenodd" clip-rule="evenodd" d="M8.47116 23.0975V22.7878H10.7553V23.0975C10.7553 24.942 12.4525 26.4486 14.5304 26.4486C16.6083 26.4486 18.3055 24.942 18.3055 23.0975V22.7878H20.5896V23.0975C20.5896 26.0685 17.8772 28.4762 14.5304 28.4762C11.1835 28.4762 8.47116 26.0685 8.47116 23.0975Z" fill="#939393"/>
</g>
<defs>
<clipPath id="clip0_93_700">
<rect width="28.5672" height="28.0476" fill="white" transform="translate(0.238861 0.428528)"/>
</clipPath>
</defs>
</svg>
