
<svg width="51" height="53" viewBox="0 0 51 53" fill="none" xmlns="http://www.w3.org/2000/svg">
<ellipse cx="25.8754" cy="26.7027" rx="24.9923" ry="25.7838" fill="#87CEEB" fill-opacity="0.5"/>
<g clip-path="url(#clip0_175_1798)">
<path d="M22.7208 20.1135H30.1407L31.7421 18.7918C32.2873 18.343 32.4909 17.6144 32.2604 16.9344C32.0299 16.2545 31.4311 15.8162 30.735 15.8162H22.1265C21.4304 15.8162 20.8315 16.2555 20.6011 16.9344C20.3706 17.6134 20.5742 18.343 21.1185 18.7909L22.7208 20.1135Z" fill="#2D6195"/>
<path d="M30.2675 21.5459H22.594C20.066 24.1062 18.1 28.5983 18.1 32.2892C18.1 35.4969 19.7458 38.7351 23.4224 38.7351H29.6705C32.8112 38.7351 34.7615 36.2646 34.7615 32.2892C34.7615 28.5983 32.7955 24.1062 30.2675 21.5459ZM26.079 29.4243H26.7825C27.8646 29.4243 28.7448 30.3325 28.7448 31.4488C28.7448 32.4525 28.0432 33.2785 27.125 33.4466V34.1981C27.125 34.5935 26.814 34.9143 26.4307 34.9143C26.0475 34.9143 25.7365 34.5935 25.7365 34.1981V33.4829H24.8109C24.4277 33.4829 24.1166 33.162 24.1166 32.7666C24.1166 32.3713 24.4277 32.0504 24.8109 32.0504H26.7825C27.0991 32.0504 27.3564 31.7849 27.3564 31.4584C27.3564 31.1222 27.0991 30.8567 26.7825 30.8567H26.079C24.9969 30.8567 24.1166 29.9486 24.1166 28.8322C24.1166 27.8286 24.8183 27.0025 25.7365 26.8345V26.082C25.7365 25.6866 26.0475 25.3657 26.4307 25.3657C26.814 25.3657 27.125 25.6866 27.125 26.082V26.7982H28.0506C28.4338 26.7982 28.7448 27.119 28.7448 27.5144C28.7448 27.9097 28.4338 28.2306 28.0506 28.2306H26.079C25.7624 28.2306 25.5051 28.4961 25.5051 28.8227C25.5051 29.1588 25.7624 29.4243 26.079 29.4243Z" fill="#2D6195"/>
</g>
<defs>
<clipPath id="clip0_175_1798">
<rect width="22.2154" height="22.9189" fill="white" transform="translate(15.3231 15.8162)"/>
</clipPath>
</defs>
</svg>
