<svg width="51" height="53" viewBox="0 0 51 53" fill="none" xmlns="http://www.w3.org/2000/svg">
<ellipse cx="25.4293" cy="26.7027" rx="24.9923" ry="25.7838" fill="#87CEEB" fill-opacity="0.5"/>
<g clip-path="url(#clip0_175_1821)">
<path d="M33.4875 15.8163C32.2168 15.8163 31.1868 16.879 31.1868 18.1899V25.2721H35.1374C35.4968 25.2721 35.7882 24.9715 35.7882 24.6007V18.1899C35.7882 16.879 34.7581 15.8163 33.4875 15.8163V15.8163Z" fill="#2D6195"/>
<path d="M22.7459 32.6921C22.7459 28.636 25.9442 25.2953 29.9285 25.3065V18.4791C29.9285 17.4577 30.3011 16.5246 30.9133 15.8163H19.4339C17.6402 15.8163 16.1806 17.3221 16.1806 19.1727V38.0517C16.1806 38.6557 16.8968 38.9525 17.3018 38.5159L18.1344 37.6188L19.0139 38.5266C19.2678 38.7885 19.68 38.7885 19.9342 38.5266L20.7677 37.6672L21.6095 38.5284C21.8633 38.788 22.2725 38.788 22.5263 38.5284L23.3815 37.6537L24.2372 38.5284C24.4905 38.788 24.8993 38.788 25.1531 38.5289L25.3188 38.3597C23.7051 36.9677 22.7459 34.9095 22.7459 32.6921ZM21.4457 21.2327H22.7302V19.9075C22.7302 19.5367 23.0216 19.2361 23.3811 19.2361C23.7405 19.2361 24.0319 19.5367 24.0319 19.9075V21.2327H25.3164C25.6759 21.2327 25.9673 21.5333 25.9673 21.9041C25.9673 22.275 25.6759 22.5756 25.3164 22.5756H24.0319V23.9008C24.0319 24.2716 23.7405 24.5722 23.3811 24.5722C23.0216 24.5722 22.7302 24.2716 22.7302 23.9008V22.5756H21.4457C21.0863 22.5756 20.7949 22.275 20.7949 21.9041C20.7949 21.5333 21.0863 21.2327 21.4457 21.2327ZM19.476 25.9351H23.8584C24.2178 25.9351 24.5092 26.2357 24.5092 26.6065C24.5092 26.9774 24.2178 27.278 23.8584 27.278H19.476C19.1165 27.278 18.8251 26.9774 18.8251 26.6065C18.8251 26.2357 19.1165 25.9351 19.476 25.9351ZM21.6476 32.6451H19.4716C19.1122 32.6451 18.8208 32.3445 18.8208 31.9737C18.8208 31.6029 19.1122 31.3022 19.4716 31.3022H21.6476C22.0071 31.3022 22.2985 31.6029 22.2985 31.9737C22.2985 32.3445 22.0071 32.6451 21.6476 32.6451ZM22.0816 29.9638H19.4738C19.1143 29.9638 18.8229 29.6632 18.8229 29.2924C18.8229 28.9215 19.1143 28.6209 19.4738 28.6209H22.0816C22.441 28.6209 22.7324 28.9215 22.7324 29.2924C22.7324 29.6632 22.441 29.9638 22.0816 29.9638Z" fill="#2D6195"/>
<path d="M29.9052 26.6491C26.6753 26.6491 24.0476 29.36 24.0476 32.6921C24.0476 36.0243 26.6753 38.7352 29.9052 38.7352C33.135 38.7352 35.7628 36.0243 35.7628 32.6921C35.7628 29.36 33.135 26.6491 29.9052 26.6491ZM30.5581 35.2781V35.3419C30.5581 35.7127 30.2667 36.0134 29.9072 36.0134C29.5478 36.0134 29.2564 35.7127 29.2564 35.3419V35.3305C28.9648 35.2589 28.6944 35.1404 28.4799 34.9956C28.1791 34.7926 28.0948 34.3765 28.2915 34.0661C28.4883 33.7557 28.8917 33.6688 29.1925 33.8718C29.4589 34.0516 29.898 34.1199 30.1138 34.0151C30.2536 33.9472 30.3619 33.8023 30.3769 33.6627C30.4091 33.3654 29.9576 33.1996 29.6881 33.0897C29.2801 32.9235 28.7724 32.7166 28.4776 32.1676C28.0575 31.3852 28.4255 30.3536 29.2564 30.0007V29.9669C29.2564 29.5961 29.5478 29.2955 29.9072 29.2955C30.2631 29.2955 30.5519 29.5903 30.5575 29.9561C30.7918 30.0316 31.0076 30.1524 31.1804 30.3169C31.4446 30.5683 31.4613 30.993 31.2175 31.2657C30.9738 31.5383 30.5621 31.5554 30.2979 31.304C30.1908 31.2021 29.8608 31.161 29.7174 31.2603C29.621 31.3272 29.5832 31.4553 29.6162 31.5168C29.7537 31.7728 30.4735 31.8606 31.0183 32.2985C32.1311 33.1932 31.7439 34.8088 30.5581 35.2781Z" fill="#2D6195"/>
</g>
<defs>
<clipPath id="clip0_175_1821">
<rect width="22.2154" height="22.9189" fill="white" transform="translate(14.8768 15.8163)"/>
</clipPath>
</defs>
</svg>
