<svg width="50" height="52" viewBox="0 0 50 52" fill="none" xmlns="http://www.w3.org/2000/svg">
<ellipse cx="24.9923" cy="25.7838" rx="24.9923" ry="25.7838" fill="#87CEEB" fill-opacity="0.5"/>
<path d="M27.538 26.2372C30.5684 26.2372 33.0335 23.6937 33.0335 20.5673C33.0335 17.4409 30.5684 14.8974 27.538 14.8974C24.5076 14.8974 22.0422 17.4409 22.0422 20.5673C22.0422 23.6937 24.5076 26.2372 27.538 26.2372ZM26.8872 17.2345V17.0805C26.8872 16.7094 27.1783 16.4091 27.538 16.4091C27.8973 16.4091 28.1889 16.7094 28.1889 17.0805V17.2354C28.9634 17.4069 29.5462 18.1186 29.5462 18.9683C29.5462 19.3389 29.2546 19.6398 28.8953 19.6398C28.5356 19.6398 28.2444 19.3389 28.2444 18.9683C28.2444 18.7315 28.0574 18.5385 27.8279 18.5385H27.2443C27.0147 18.5385 26.8277 18.7315 26.8277 18.9683C26.8277 19.1039 26.8906 19.2328 26.9965 19.3134L27.538 19.727L28.8536 20.7316C29.2858 21.0615 29.5462 21.5893 29.5496 22.1443V22.1506C29.5527 22.6242 29.3769 23.071 29.0541 23.4081C28.8146 23.6583 28.5152 23.8262 28.1889 23.8969V24.054C28.1889 24.4251 27.8973 24.7255 27.538 24.7255C27.1783 24.7255 26.8872 24.4251 26.8872 24.054V23.8991C26.5696 23.8293 26.2775 23.6681 26.0415 23.4273C25.7148 23.0947 25.5334 22.6506 25.5308 22.177C25.5286 21.8064 25.818 21.5038 26.1773 21.5015H26.1816C26.5392 21.5015 26.8303 21.7997 26.8325 22.169C26.8334 22.4007 27.0141 22.596 27.2512 22.596C27.6108 22.5938 27.4769 22.5946 27.834 22.5924C28.065 22.5906 28.2497 22.3971 28.2479 22.1596V22.1533C28.247 22.019 28.1841 21.891 28.0791 21.8108L27.538 21.3977L26.222 20.3931C25.7864 20.0601 25.526 19.5274 25.526 18.9683C25.526 18.1169 26.1105 17.4046 26.8872 17.2345Z" fill="#2D6195"/>
<path d="M18.6333 29.463C18.4665 29.1646 18.0959 29.0608 17.8049 29.234L14.7433 31.0572C14.4534 31.2303 14.354 31.6128 14.5213 31.9123L17.6504 37.5035C17.8179 37.8025 18.1884 37.9052 18.4789 37.7326L21.5404 35.9088C21.8307 35.7361 21.9298 35.3536 21.7624 35.0541L18.6333 29.463Z" fill="#2D6195"/>
<path d="M36.1758 28.347C35.8812 27.9249 35.311 27.8295 34.9023 28.1335C33.6622 29.0552 31.2809 30.8252 31.0917 30.9662C31.0045 31.0427 30.9129 31.1121 30.8175 31.1735C30.443 31.4165 30.0087 31.5463 29.5552 31.5463H26.4376C26.0784 31.5463 25.7868 31.246 25.7868 30.8749C25.7868 30.5033 26.0788 30.2034 26.4376 30.2034H29.7718C30.2616 30.2034 30.6539 29.7826 30.6335 29.2763C30.6144 28.796 30.217 28.4236 29.7509 28.4236H27.213C27.0412 28.236 26.8529 28.0641 26.6511 27.9105C25.9573 27.3828 25.0999 27.0708 24.1718 27.0708C22.5216 27.0708 20.8797 28.1433 20.1989 29.5749L22.8614 34.3321H27.8556C28.8363 34.3321 29.8021 34.0733 30.6522 33.5688C30.9468 33.3942 31.2622 33.1843 31.6042 32.9309C33.0369 31.8691 35.9662 29.6631 35.9684 29.6617C36.378 29.3582 36.4709 28.7691 36.1758 28.347Z" fill="#2D6195"/>
</svg>
