<svg width="51" height="53" viewBox="0 0 51 53" fill="none" xmlns="http://www.w3.org/2000/svg">
<ellipse cx="25.6539" cy="26.7027" rx="24.9923" ry="25.7838" fill="#87CEEB" fill-opacity="0.5"/>
<g clip-path="url(#clip0_175_1834)">
<path d="M35.8224 26.7909H34.5011C34.2003 25.9229 33.7157 25.1457 33.0953 24.5103L35.1331 23.5823C35.4242 23.4497 35.5836 23.1184 35.5009 22.8014C35.2551 21.8606 34.4256 21.1685 33.4402 21.1685H31.7595C30.793 21.1685 29.977 21.8345 29.7141 22.7477H27.939C27.2724 25.2884 25.0204 27.1629 22.3521 27.1629C20.7233 27.1629 19.2498 26.4642 18.1971 25.3422C17.9006 25.7786 17.6578 26.257 17.4788 26.7671C16.9471 26.6471 16.51 26.2133 16.3877 25.6483C16.3095 25.2863 15.9614 25.0582 15.6108 25.1392C15.26 25.22 15.039 25.5789 15.1173 25.9408C15.2505 26.5562 15.5855 27.1149 16.0606 27.514C16.3858 27.7871 16.7682 27.9772 17.1734 28.0726C17.1419 28.3285 17.1255 28.5894 17.1255 28.8542V29.5052C17.1255 31.9728 18.5377 34.0982 20.5699 35.0613V36.541C20.5699 37.3464 21.2028 37.9992 21.9834 37.9992C22.764 37.9992 23.3969 37.3464 23.3969 36.541V35.6116H28.6918V36.541C28.6918 37.3464 29.3246 37.9992 30.1052 37.9992C30.8859 37.9992 31.5187 37.3464 31.5187 36.541V35.0044C33.0046 34.2587 34.1425 32.8851 34.6116 31.2161H35.8223C36.6478 31.2161 37.317 30.5225 37.317 29.6668V28.3401C37.3171 27.4845 36.6479 26.7909 35.8224 26.7909ZM31.0199 27.1786C30.6618 27.1786 30.3714 26.8791 30.3714 26.5095C30.3714 26.14 30.6617 25.8405 31.0199 25.8405C31.3781 25.8405 31.6684 26.14 31.6684 26.5095C31.6684 26.8791 31.3781 27.1786 31.0199 27.1786Z" fill="#2D6195"/>
<path d="M22.3523 16.5523C19.8786 16.5523 17.8662 18.6311 17.8662 21.1861C17.8662 23.7413 19.8787 25.82 22.3523 25.82C24.8259 25.82 26.8384 23.7413 26.8384 21.1861C26.8384 18.631 24.8259 16.5523 22.3523 16.5523ZM21.9357 20.4781H22.7689C23.7087 20.4781 24.4733 21.2675 24.4733 22.2377C24.4733 23.1258 23.8325 23.862 23.0032 23.9802V24.2324C23.0032 24.6033 22.7117 24.9039 22.3523 24.9039C21.9929 24.9039 21.7015 24.6033 21.7015 24.2324V23.9973H21.5354C20.8164 23.9973 20.2313 23.3934 20.2313 22.6511C20.2313 22.2803 20.5227 21.9797 20.8821 21.9797C21.2416 21.9797 21.533 22.2803 21.533 22.6511L22.7688 22.6543C22.9909 22.6543 23.1715 22.4674 23.1715 22.2377C23.1715 22.008 22.9909 21.821 22.7688 21.821H21.9357C20.9959 21.821 20.2313 21.0317 20.2313 20.0615C20.2313 19.1733 20.8721 18.4372 21.7015 18.3189V18.1399C21.7015 17.7691 21.9929 17.4684 22.3523 17.4684C22.7117 17.4684 23.0032 17.7691 23.0032 18.1399V18.3018H23.1692C23.8882 18.3018 24.4733 18.9057 24.4733 19.648C24.4733 20.0188 24.1819 20.3195 23.8224 20.3195C23.463 20.3195 23.1716 20.0188 23.1716 19.648C23.1716 19.6469 23.1715 19.6465 23.1715 19.6465L21.9357 19.6447C21.7137 19.6447 21.533 19.8317 21.533 20.0615C21.533 20.2912 21.7137 20.4781 21.9357 20.4781Z" fill="#2D6195"/>
</g>
<defs>
<clipPath id="clip0_175_1834">
<rect width="22.2154" height="22.9189" fill="white" transform="translate(15.1017 15.8163)"/>
</clipPath>
</defs>
</svg>
